<?xml version="1.0" encoding="UTF-8" standalone="no"?>
<!-- Created with Inkscape (http://www.inkscape.org/) -->

<svg
   width="100"
   height="59"
   viewBox="0 0 100 59"
   version="1.1"
   id="svg5"
   inkscape:version="1.1 (c68e22c387, 2021-05-23)"
   sodipodi:docname="Energía_Argentina_logo.svg"
   xmlns:inkscape="http://www.inkscape.org/namespaces/inkscape"
   xmlns:sodipodi="http://sodipodi.sourceforge.net/DTD/sodipodi-0.dtd"
   xmlns="http://www.w3.org/2000/svg"
   xmlns:svg="http://www.w3.org/2000/svg"
   xmlns:rdf="http://www.w3.org/1999/02/22-rdf-syntax-ns#"
   xmlns:cc="http://creativecommons.org/ns#"
   xmlns:dc="http://purl.org/dc/elements/1.1/">
  <title
     id="title7112">Nigerian National Petroleum Company logo</title>
  <sodipodi:namedview
     id="namedview7"
     pagecolor="#ffffff"
     bordercolor="#111111"
     borderopacity="1"
     inkscape:pageshadow="0"
     inkscape:pageopacity="0"
     inkscape:pagecheckerboard="1"
     inkscape:document-units="px"
     showgrid="false"
     units="px"
     width="100px"
     inkscape:zoom="9.8635244"
     inkscape:cx="56.419995"
     inkscape:cy="22.355092"
     inkscape:window-width="1920"
     inkscape:window-height="1009"
     inkscape:window-x="-8"
     inkscape:window-y="-8"
     inkscape:window-maximized="1"
     inkscape:current-layer="g181"
     scale-x="1"
     height="31px"
     objecttolerance="10"
     guidetolerance="10"
     inkscape:snap-perpendicular="false"
     inkscape:snap-tangential="false"
     gridtolerance="10" />
  <defs
     id="defs2" />
  <g
     inkscape:label="Capa 1"
     inkscape:groupmode="layer"
     id="layer1">
    <g
       id="g181"
       transform="matrix(0.13438582,0,0,0.13438582,35.920516,31.951262)">
      <g
         aria-label="PICTURES"
         id="text21"
         style="font-weight:bold;font-size:19.0503px;font-family:'Warner Bros. Sans';-inkscape-font-specification:'Warner Bros. Sans Bold';display:inline;fill:#031272;fill-opacity:1;stroke-width:0.360005;stop-color:#000000"
         transform="matrix(3.7795295,0,0,3.7795295,1517.549,332.26638)" />
      <g
         id="Discovery_Family_Logo_1_"
         style="fill:#000000"
         transform="matrix(22.87172,0,0,22.87172,-5756.4328,-830.15259)" />
      <g
         id="#2b9bccff-4"
         style="fill:#ff0000;fill-opacity:1"
         transform="matrix(1.0624647,0,0,1.0624647,-192.14915,-775.25101)" />
      <g
         id="g130"
         transform="matrix(0.8892108,0,0,0.8892108,21.738749,-34.806266)">
        <path
           style="color:#000000;fill:#dfdb02;fill-opacity:1;stroke-width:0.933648;-inkscape-stroke:none"
           d="M -18.215832,-46.966803 -318.60434,176.08968 c -1.13189,0.57993 -1.50918,-308.75609 -1.50918,-308.75609 z"
           id="path163-8"
           sodipodi:nodetypes="cccc" />
        <path
           style="color:#000000;fill:#fc0205;fill-opacity:1;stroke-width:0.933648;-inkscape-stroke:none"
           d="M -318.60434,176.08968 -18.211652,-46.963703 c 1.0407,-0.73094 -0.27251,309.259153 -0.27251,309.259153 z"
           id="path163-9-9"
           sodipodi:nodetypes="cccc" />
        <path
           style="color:#000000;fill:#216745;fill-opacity:1;stroke-width:0.933648;-inkscape-stroke:none"
           d="M 75.002057,-137.59529 -225.38642,85.461171 c -1.13187,0.579933 -1.50917,-308.756081 -1.50917,-308.756081 z"
           id="path163"
           sodipodi:nodetypes="cccc" />
        <path
           style="color:#000000;fill:#06ad50;fill-opacity:1;stroke-width:0.933648;-inkscape-stroke:none"
           d="M -225.38642,85.461171 75.00624,-137.5922 c 1.040695,-0.73092 -0.272513,309.25914 -0.272513,309.25914 z"
           id="path163-9"
           sodipodi:nodetypes="cccc" />
        <g
           id="#000000ff"
           transform="matrix(0.20339586,0,0,0.21314989,94.783861,77.128153)">
          <path
             id="path7-7"
             style="fill:#606161;fill-opacity:1;stroke-width:0.265485"
             d="m -232.71094,239.69141 c -3.0538,-0.15016 -6.11551,-0.1078 -9.16015,0.11914 -14.01729,1.01644 -27.88519,6.49298 -38.48438,16.27148 -6.59499,6.03343 -11.86219,13.66121 -15.20508,22.14063 -4.20907,10.57752 -5.41349,22.36488 -3.86523,33.68164 1.24223,8.99307 4.41877,17.69862 9.3125,25.20508 3.54776,5.48715 7.97724,10.33437 12.99805,14.35937 9.06909,7.29447 20.03848,11.83665 31.33789,13.48633 12.03074,1.71219 24.53198,0.40502 35.83398,-4.33203 9.70447,-4.02501 18.43364,-10.58693 25.18164,-18.92774 -6.07891,-6.62861 -12.1659,-13.24791 -18.25,-19.87109 -4.77184,4.90284 -10.12659,9.33573 -16.30664,12.11328 -4.50731,2.04919 -9.40385,3.11157 -14.31055,3.21484 -6.33565,0.17122 -12.7775,-1.06803 -18.45703,-4.08203 -4.44248,-2.3726 -8.36695,-5.83646 -11.28711,-10.07617 -4.24797,-6.17747 -6.16015,-13.89232 -6.00195,-21.45312 0.0934,-7.15587 2.013,-14.40428 6.08203,-20.21485 4.04569,-5.98451 10.22327,-10.24371 16.95313,-12.15429 5.62247,-1.60077 11.59605,-1.83423 17.32226,-0.72266 8.29367,1.60891 15.94246,6.31067 21.52344,12.91211 6.85952,-6.62047 13.71665,-13.24282 20.57617,-19.86328 -5.11157,-6.59329 -11.88588,-11.60609 -19.20703,-15.15821 -8.33646,-4.02772 -17.42454,-6.19796 -26.58594,-6.64843 z m -468.6875,2.0664 v 121.75586 h 29.86914 c 0.005,-25.49802 -0.0103,-50.99611 0.008,-76.49414 0.86619,1.6062 1.54886,3.3263 2.49804,4.88086 18.89805,23.87824 37.82464,47.73852 56.73047,71.61133 7.35745,0.005 14.71481,0.002 22.07227,0.002 V 241.75781 h -29.8711 c 0.003,23.71246 0.003,47.42503 0,71.13477 -0.85322,-1.56 -1.5618,-3.20963 -2.49023,-4.7207 -17.5832,-22.14432 -35.1792,-44.27791 -52.76758,-66.41407 -8.68268,0.003 -17.36615,0 -26.04883,0 z m 282.58008,0.82617 v 121.75586 h 30.61133 v -33.97265 h 15.4375 c 6.89961,-0.0489 13.87646,0.33749 20.67773,-1.13281 9.56008,-1.87526 18.68682,-6.70933 25.14258,-14.24024 6.48501,-7.45482 10.14099,-17.34291 10.31641,-27.30078 0.17274,-9.7785 -1.9203,-19.88562 -7.45117,-28.01172 -4.65112,-6.9629 -11.77969,-11.98853 -19.60157,-14.52148 -5.60263,-1.85895 -11.51888,-2.57694 -17.39257,-2.57422 -19.24774,-0.005 -38.49253,-0.002 -57.74024,-0.002 z m -142.26172,0.82618 v 121.7539 h 29.86719 c 0.005,-25.49802 -0.0103,-50.99611 0.008,-76.49414 0.86619,1.6062 1.54887,3.32826 2.49805,4.88281 18.89805,23.87825 37.82464,47.73657 56.73047,71.60938 7.35745,0.005 14.71481,0.002 22.07226,0.002 v -121.7539 h -29.87109 c 0.003,23.71246 0.003,47.42502 0,71.13476 -0.85323,-1.55999 -1.55985,-3.21158 -2.48828,-4.72265 -17.5832,-22.14432 -35.1792,-44.27596 -52.76758,-66.41211 -8.68268,0.003 -17.36615,0 -26.04883,0 z m 172.875,26.47851 c 8.05578,0.005 16.11415,-0.0155 24.16992,0.0117 3.88835,0.0571 8.03175,0.61652 11.23438,3.0625 2.79334,2.1117 4.22776,5.59048 4.7168,9.01758 0.72026,4.94632 0.43935,10.29687 -2.07227,14.70508 -1.82323,3.28577 -5.02021,5.65671 -8.56836,6.62695 -2.91559,0.8724 -5.98035,0.8097 -8.98633,0.79883 h -20.49609 c 0,-11.40644 -6.4e-4,-22.81622 0.002,-34.22266 z"
             transform="matrix(3.8559541,0,0,3.6795004,2745.3072,-859.55053)" />
        </g>
      </g>
    </g>
  </g>
  <metadata
     id="metadata20">
    <rdf:RDF>
      <cc:Work
         rdf:about="">
        <cc:license
           rdf:resource="http://scripts.sil.org/OFL" />
        <dc:title>Nigerian National Petroleum Company logo</dc:title>
        <dc:date>22-oct-2022</dc:date>
      </cc:Work>
      <cc:License
         rdf:about="http://scripts.sil.org/OFL">
        <cc:permits
           rdf:resource="http://scripts.sil.org/pub/OFL/Reproduction" />
        <cc:permits
           rdf:resource="http://scripts.sil.org/pub/OFL/Distribution" />
        <cc:permits
           rdf:resource="http://scripts.sil.org/pub/OFL/Embedding" />
        <cc:permits
           rdf:resource="http://scripts.sil.org/pub/OFL/DerivativeWorks" />
        <cc:requires
           rdf:resource="http://scripts.sil.org/pub/OFL/Notice" />
        <cc:requires
           rdf:resource="http://scripts.sil.org/pub/OFL/Attribution" />
        <cc:requires
           rdf:resource="http://scripts.sil.org/pub/OFL/ShareAlike" />
        <cc:requires
           rdf:resource="http://scripts.sil.org/pub/OFL/DerivativeRenaming" />
        <cc:requires
           rdf:resource="http://scripts.sil.org/pub/OFL/BundlingWhenSelling" />
      </cc:License>
    </rdf:RDF>
  </metadata>
</svg>
